<svg xmlns="http://www.w3.org/2000/svg" xmlns:xlink="http://www.w3.org/1999/xlink" width="1250" zoomAndPan="magnify" viewBox="0 0 937.5 449.999984" height="600" preserveAspectRatio="xMidYMid meet" version="1.0"><defs><g/><clipPath id="b3914a6fb4"><path d="M 0 0.121094 L 937 0.121094 L 937 449.878906 L 0 449.878906 Z M 0 0.121094 " clip-rule="nonzero"/></clipPath></defs><g clip-path="url(#b3914a6fb4)"><path fill="#ffffff" d="M 0 0.121094 L 937.5 0.121094 L 937.5 450.121094 L 0 450.121094 Z M 0 0.121094 " fill-opacity="1" fill-rule="nonzero"/><path fill="#ffffff" d="M 0 0.121094 L 937.5 0.121094 L 937.5 450.121094 L 0 450.121094 Z M 0 0.121094 " fill-opacity="1" fill-rule="nonzero"/></g><g fill="#ffffff" fill-opacity="1"><g transform="translate(25.255112, 356.744864)"><g><path d="M 74.1875 -181.984375 C 88.65625 -199.347656 106.84375 -208.03125 128.75 -208.03125 C 173.039062 -208.03125 195.503906 -182.296875 196.140625 -130.828125 L 196.140625 0 L 141.578125 0 L 141.578125 -129.3125 C 141.578125 -141.007812 139.0625 -149.660156 134.03125 -155.265625 C 129 -160.867188 120.628906 -163.671875 108.921875 -163.671875 C 92.941406 -163.671875 81.363281 -157.503906 74.1875 -145.171875 L 74.1875 0 L 19.625 0 L 19.625 -289.953125 L 74.1875 -289.953125 Z M 74.1875 -181.984375 "/></g></g></g><g fill="#ffffff" fill-opacity="1"><g transform="translate(275.612498, 356.744864)"><g><path d="M 114.96875 3.78125 C 85.007812 3.78125 60.625 -5.40625 41.8125 -23.78125 C 23 -42.15625 13.59375 -66.632812 13.59375 -97.21875 L 13.59375 -102.5 C 13.59375 -123.019531 17.554688 -141.363281 25.484375 -157.53125 C 33.410156 -173.707031 44.640625 -186.164062 59.171875 -194.90625 C 73.710938 -203.65625 90.296875 -208.03125 108.921875 -208.03125 C 136.859375 -208.03125 158.847656 -199.21875 174.890625 -181.59375 C 190.941406 -163.976562 198.96875 -139 198.96875 -106.65625 L 198.96875 -84.375 L 68.90625 -84.375 C 70.664062 -71.039062 75.976562 -60.34375 84.84375 -52.28125 C 93.71875 -44.226562 104.953125 -40.203125 118.546875 -40.203125 C 139.566406 -40.203125 155.988281 -47.816406 167.8125 -63.046875 L 194.625 -33.03125 C 186.445312 -21.457031 175.375 -12.425781 161.40625 -5.9375 C 147.4375 0.539062 131.957031 3.78125 114.96875 3.78125 Z M 108.734375 -163.859375 C 97.910156 -163.859375 89.128906 -160.207031 82.390625 -152.90625 C 75.660156 -145.601562 71.351562 -135.160156 69.46875 -121.578125 L 145.359375 -121.578125 L 145.359375 -125.90625 C 145.109375 -137.988281 141.832031 -147.332031 135.53125 -153.9375 C 129.238281 -160.550781 120.304688 -163.859375 108.734375 -163.859375 Z M 108.734375 -163.859375 "/></g></g></g><g fill="#ffffff" fill-opacity="1"><g transform="translate(518.607667, 356.744864)"><g><path d="M 135.734375 -153.09375 C 128.304688 -154.101562 121.757812 -154.609375 116.09375 -154.609375 C 95.457031 -154.609375 81.929688 -147.625 75.515625 -133.65625 L 75.515625 0 L 20.953125 0 L 20.953125 -204.25 L 72.484375 -204.25 L 74 -179.90625 C 84.945312 -198.65625 100.113281 -208.03125 119.5 -208.03125 C 125.539062 -208.03125 131.203125 -207.210938 136.484375 -205.578125 Z M 135.734375 -153.09375 "/></g></g></g><g fill="#ffffff" fill-opacity="1"><g transform="translate(693.644076, 356.744864)"><g><path d="M 12.453125 -104.015625 C 12.453125 -124.273438 16.351562 -142.332031 24.15625 -158.1875 C 31.957031 -174.050781 43.1875 -186.320312 57.84375 -195 C 72.507812 -203.6875 89.535156 -208.03125 108.921875 -208.03125 C 136.484375 -208.03125 158.976562 -199.597656 176.40625 -182.734375 C 193.832031 -165.867188 203.554688 -142.960938 205.578125 -114.015625 L 205.953125 -100.046875 C 205.953125 -68.710938 197.203125 -43.570312 179.703125 -24.625 C 162.210938 -5.6875 138.742188 3.78125 109.296875 3.78125 C 79.847656 3.78125 56.34375 -5.65625 38.78125 -24.53125 C 21.226562 -43.414062 12.453125 -69.09375 12.453125 -101.5625 Z M 67.015625 -100.046875 C 67.015625 -80.671875 70.660156 -65.851562 77.953125 -55.59375 C 85.253906 -45.332031 95.703125 -40.203125 109.296875 -40.203125 C 122.515625 -40.203125 132.832031 -45.265625 140.25 -55.390625 C 147.675781 -65.523438 151.390625 -81.734375 151.390625 -104.015625 C 151.390625 -123.015625 147.675781 -137.738281 140.25 -148.1875 C 132.832031 -158.632812 122.390625 -163.859375 108.921875 -163.859375 C 95.578125 -163.859375 85.253906 -158.664062 77.953125 -148.28125 C 70.660156 -137.894531 67.015625 -121.816406 67.015625 -100.046875 Z M 67.015625 -100.046875 "/></g></g></g></svg>