<svg version="1.1" id="Layer_1" xmlns="http://www.w3.org/2000/svg" xmlns:xlink="http://www.w3.org/1999/xlink" x="0px" y="0px"
	 width="100%" viewBox="0 0 512 512" enable-background="new 0 0 512 512" xml:space="preserve">
<path fill="#000000" opacity="1.000000" stroke="none" 
	d="
M150.148178,383.311890 
	C127.585258,381.318329 108.053490,373.433350 91.656441,358.260712 
	C69.181770,337.464264 58.995998,311.383942 58.757282,281.155914 
	C58.590206,260.000031 58.180779,238.820114 58.941967,217.689194 
	C59.958038,189.482620 70.783722,165.445984 93.537971,148.073074 
	C119.653763,128.133621 148.014908,125.775261 177.623932,139.908142 
	C194.611710,148.016663 211.442627,156.247238 230.449463,158.920303 
	C264.349487,163.687866 296.773804,159.751129 327.485840,144.031921 
	C333.409210,141.000214 339.377899,137.948318 345.589905,135.606613 
	C393.143799,117.680603 437.784760,146.867798 451.280121,189.521072 
	C454.767731,200.544037 456.285370,211.875854 456.248810,223.440155 
	C456.192413,241.265747 456.473907,259.095734 456.173065,276.916443 
	C455.691193,305.461029 447.610474,331.402802 428.168854,352.944366 
	C413.349854,369.364044 394.776489,379.088959 372.856934,382.295563 
	C354.427032,384.991638 336.332367,382.870209 318.510071,378.058960 
	C301.595886,373.492798 284.660736,369.974640 266.935516,369.907959 
	C250.595108,369.846527 234.367935,369.781708 218.390045,373.578705 
	C211.272949,375.270050 204.200531,377.189575 197.189957,379.280823 
	C181.929871,383.832886 166.281555,383.511414 150.148178,383.311890 
M277.899658,190.578445 
	C271.647064,191.980545 265.280548,191.303238 258.971222,191.527237 
	C236.283218,192.332748 214.075272,189.370010 192.856567,181.181763 
	C181.693497,176.873947 171.045654,171.243500 160.102173,166.351181 
	C142.122421,158.313248 122.564445,161.970703 108.325264,175.465012 
	C94.540115,188.529053 89.422142,204.986008 89.450447,223.271698 
	C89.484718,245.412079 88.084816,267.601837 90.320610,289.687988 
	C92.634018,312.540894 103.792694,330.284607 123.557060,341.969604 
	C142.447952,353.138184 163.039703,352.950317 183.656296,348.348145 
	C202.600677,344.119263 221.037125,337.703827 240.759232,337.154602 
	C261.591614,336.574432 282.345001,336.435028 302.889893,340.584839 
	C318.511261,343.740143 333.585175,349.423157 349.692352,350.381165 
	C361.505493,351.083832 373.009827,350.179291 383.813690,344.996399 
	C411.132751,331.890686 421.735504,308.134094 423.433411,279.814545 
	C424.637878,259.724976 424.271606,239.513611 423.732025,219.350861 
	C423.525085,211.618668 422.342987,204.109573 419.808899,196.845337 
	C410.506561,170.179077 380.952179,150.465881 349.999756,167.149139 
	C346.777100,168.886124 343.378571,170.294327 340.131653,171.989151 
	C320.858826,182.049164 300.282074,187.747086 277.899658,190.578445 
z"/>
</svg>